<svg xmlns="http://www.w3.org/2000/svg" xmlns:xlink="http://www.w3.org/1999/xlink" xmlns:svgjs="http://svgjs.com/svgjs" width="512" height="512" x="0" y="0" viewBox="0 0 511.865 511.865" style="enable-background:new 0 0 512 512" xml:space="preserve" class=""><g> <g xmlns="http://www.w3.org/2000/svg"> <g> <path d="M256.17,83.978h-0.078c-2.211,0-3.96,1.789-3.96,3.999c0,2.21,1.831,3.999,4.038,3.999c2.21,0,3.999-1.789,3.999-3.999    C260.169,85.767,258.38,83.978,256.17,83.978z" fill="#b1976b" data-original="#000000" style="" class=""></path> </g> </g> <g xmlns="http://www.w3.org/2000/svg"> <g> <path d="M294.749,9.17c-0.937-0.937-9.997-9.169-38.817-9.169c-28.817,0-37.881,8.232-38.818,9.169    c-1.534,1.535-1.531,3.987-0.031,5.557s4.018,1.617,5.62,0.16c0.078-0.067,7.853-6.889,33.229-6.889    c25.376,0,33.147,6.822,33.163,6.826c0.781,0.781,1.804,1.172,2.827,1.172s2.046-0.39,2.827-1.171    C296.311,13.263,296.311,10.732,294.749,9.17z" fill="#b1976b" data-original="#000000" style="" class=""></path> </g> </g> <g xmlns="http://www.w3.org/2000/svg"> <g> <path d="M284.096,15.996c-6.615,0-11.997,5.381-11.997,11.997c0,6.616,5.382,11.997,11.997,11.997s11.997-5.382,11.997-11.997    C296.093,21.377,290.711,15.996,284.096,15.996z M284.096,31.992c-2.202,0-3.999-1.792-3.999-3.999    c0-2.207,1.797-3.999,3.999-3.999c2.202,0,3.999,1.792,3.999,3.999C288.095,30.2,286.298,31.992,284.096,31.992z" fill="#b1976b" data-original="#000000" style="" class=""></path> </g> </g> <g xmlns="http://www.w3.org/2000/svg"> <g> <path d="M283.604,18.542c-1.304-1.777-3.812-2.16-5.584-0.844c-0.899,0.664-22.088,16.566-22.088,42.286    c0,2.21,1.788,3.999,3.999,3.999c2.21,0,3.998-1.788,3.998-3.999c0-21.608,18.652-35.713,18.84-35.854    C284.542,22.818,284.916,20.315,283.604,18.542z" fill="#b1976b" data-original="#000000" style="" class=""></path> </g> </g> <g xmlns="http://www.w3.org/2000/svg"> <g> <path d="M227.853,15.996c-6.616,0-11.997,5.381-11.997,11.997c0,6.616,5.381,11.997,11.997,11.997    c6.616,0,11.997-5.382,11.997-11.997C239.85,21.377,234.469,15.996,227.853,15.996z M227.853,31.992    c-2.207,0-3.999-1.792-3.999-3.999c0-2.207,1.792-3.999,3.999-3.999c2.207,0,3.999,1.792,3.999,3.999    C231.852,30.2,230.06,31.992,227.853,31.992z" fill="#b1976b" data-original="#000000" style="" class=""></path> </g> </g> <g xmlns="http://www.w3.org/2000/svg"> <g> <path d="M233.934,17.703c-1.777-1.32-4.269-0.941-5.585,0.832c-1.316,1.769-0.945,4.272,0.82,5.592    c0.188,0.141,18.773,14.25,18.851,35.873c0.008,2.202,1.796,3.983,3.999,3.983c0.004,0,0.008,0,0.016,0.001    c2.206-0.008,3.991-1.804,3.983-4.014C255.924,34.265,234.832,18.367,233.934,17.703z" fill="#b1976b" data-original="#000000" style="" class=""></path> </g> </g> <g xmlns="http://www.w3.org/2000/svg"> <g> <path d="M255.932,63.983c-13.231,0-23.994,10.763-23.994,23.994c0,13.23,10.763,23.993,23.994,23.993    c13.23,0,23.993-10.763,23.993-23.993C279.925,74.746,269.162,63.983,255.932,63.983z M255.932,103.973    c-8.822,0-15.996-7.174-15.996-15.996c0-8.822,7.174-15.996,15.996-15.996c8.825,0,15.995,7.174,15.995,15.996    C271.927,96.799,264.757,103.973,255.932,103.973z" fill="#b1976b" data-original="#000000" style="" class=""></path> </g> </g> <g xmlns="http://www.w3.org/2000/svg"> <g> <path d="M227.939,71.981H75.98c-2.21,0-3.999,1.789-3.999,3.999c0,2.21,1.789,3.999,3.999,3.999h151.959    c2.211,0,3.999-1.789,3.999-3.999C231.938,73.77,230.149,71.981,227.939,71.981z" fill="#b1976b" data-original="#000000" style="" class=""></path> </g> </g> <g xmlns="http://www.w3.org/2000/svg"> <g> <path d="M228.139,95.979L68.181,87.981c-2.249-0.219-4.085,1.589-4.194,3.796c-0.109,2.206,1.589,4.081,3.796,4.194l159.957,7.998    c0.066,0.004,0.137,0.004,0.203,0.004c2.117,0,3.882-1.66,3.991-3.8C232.044,97.966,230.346,96.092,228.139,95.979z" fill="#b1976b" data-original="#000000" style="" class=""></path> </g> </g> <g xmlns="http://www.w3.org/2000/svg"> <g> <path d="M77.768,72.403c-1.98-0.984-4.374-0.188-5.366,1.789l-7.998,15.995c-0.987,1.976-0.187,4.378,1.789,5.366    c0.575,0.285,1.183,0.422,1.785,0.422c1.469,0,2.879-0.809,3.58-2.211l7.998-15.995C80.544,75.793,79.744,73.391,77.768,72.403z" fill="#b1976b" data-original="#000000" style="" class=""></path> </g> </g> <g xmlns="http://www.w3.org/2000/svg"> <g> <path d="M435.875,71.981H283.916c-2.21,0-3.999,1.789-3.999,3.999c0,2.21,1.789,3.999,3.999,3.999h151.959    c2.211,0,3.999-1.789,3.999-3.999C439.874,73.77,438.086,71.981,435.875,71.981z" fill="#b1976b" data-original="#000000" style="" class=""></path> </g> </g> <g xmlns="http://www.w3.org/2000/svg"> <g> <path d="M443.679,87.981l-159.957,7.998c-2.21,0.113-3.905,1.987-3.796,4.194c0.109,2.14,1.875,3.8,3.983,3.8    c0.07,0,0.14,0,0.204-0.004l159.957-7.998c2.21-0.113,3.905-1.988,3.796-4.194C447.756,89.57,445.756,87.739,443.679,87.981z" fill="#b1976b" data-original="#000000" style="" class=""></path> </g> </g> <g xmlns="http://www.w3.org/2000/svg"> <g> <path d="M447.45,90.187l-7.998-15.995c-0.992-1.977-3.397-2.773-5.365-1.789c-1.977,0.988-2.781,3.389-1.789,5.366l7.998,15.995    c0.703,1.402,2.117,2.211,3.585,2.211c0.594,0,1.203-0.137,1.78-0.422C447.638,94.565,448.442,92.164,447.45,90.187z" fill="#b1976b" data-original="#000000" style="" class=""></path> </g> </g> <g xmlns="http://www.w3.org/2000/svg"> <g> <path d="M147.961,303.918c-2.21,0-3.999,1.789-3.999,4c0,37.489-30.496,67.981-67.982,67.981    c-37.485,0-67.981-30.492-67.981-67.981c0-2.211-1.789-4-3.999-4s-3.999,1.789-3.999,4c0,41.895,34.084,75.979,75.979,75.979    c41.895,0,75.979-34.084,75.98-75.979C151.96,305.707,150.171,303.918,147.961,303.918z" fill="#b1976b" data-original="#000000" style="" class=""></path> </g> </g> <g xmlns="http://www.w3.org/2000/svg"> <g> <path d="M147.96,303.918H3.999c-2.21,0-3.999,1.789-3.999,4c0,2.21,1.789,3.998,3.999,3.998h143.962    c2.21,0,3.998-1.788,3.998-3.998C151.959,305.707,150.17,303.918,147.96,303.918z" fill="#b1976b" data-original="#000000" style="" class=""></path> </g> </g> <g xmlns="http://www.w3.org/2000/svg"> <g> <path d="M267.929,111.97c-2.211,0-4,1.789-4,3.999v15.996c0,2.21,1.789,3.999,4,3.999c2.21,0,3.998-1.789,3.998-3.999v-15.996    C271.927,113.759,270.139,111.97,267.929,111.97z" fill="#b1976b" data-original="#000000" style="" class=""></path> </g> </g> <g xmlns="http://www.w3.org/2000/svg"> <g> <path d="M243.935,111.97c-2.21,0-3.999,1.789-3.999,3.999v15.996c0,2.21,1.789,3.999,3.999,3.999c2.21,0,3.999-1.789,3.999-3.999    v-15.996C247.934,113.759,246.145,111.97,243.935,111.97z" fill="#b1976b" data-original="#000000" style="" class=""></path> </g> </g> <g xmlns="http://www.w3.org/2000/svg"> <g> <path d="M275.926,135.964c-2.202,0-3.999-1.793-3.999-3.999c0-2.21-1.788-3.999-3.998-3.999c-2.211,0-4,1.789-4,3.999    c0,6.616,5.382,11.997,11.997,11.997c2.211,0,3.999-1.789,3.999-3.999C279.925,137.752,278.137,135.964,275.926,135.964z" fill="#b1976b" data-original="#000000" style="" class=""></path> </g> </g> <g xmlns="http://www.w3.org/2000/svg"> <g> <path d="M243.935,127.966c-2.21,0-3.999,1.789-3.999,3.999c0,2.206-1.792,3.999-3.999,3.999c-2.21,0-3.999,1.788-3.999,3.999    c0,2.21,1.789,3.999,3.999,3.999c6.616,0,11.997-5.382,11.997-11.997C247.934,129.755,246.145,127.966,243.935,127.966z" fill="#b1976b" data-original="#000000" style="" class=""></path> </g> </g> <g xmlns="http://www.w3.org/2000/svg"> <g> <path d="M227.939,143.961c-2.21,0-3.999,1.788-3.999,3.999s1.789,3.999,3.999,3.999c6.616,0,11.997,5.382,11.997,11.997    c0,2.21,1.789,3.999,3.999,3.999c2.21,0,3.999-1.788,3.999-3.999C247.934,152.931,238.963,143.961,227.939,143.961z" fill="#b1976b" data-original="#000000" style="" class=""></path> </g> </g> <g xmlns="http://www.w3.org/2000/svg"> <g> <path d="M283.924,143.961c-11.028,0-19.995,8.971-19.995,19.995c0,2.21,1.789,3.999,4,3.999c2.21,0,3.998-1.788,3.998-3.999    c0-6.615,5.382-11.997,11.997-11.997c2.21,0,3.999-1.789,3.999-3.999C287.923,145.75,286.134,143.961,283.924,143.961z" fill="#b1976b" data-original="#000000" style="" class=""></path> </g> </g> <g xmlns="http://www.w3.org/2000/svg"> <g> <path d="M283.924,143.961h-55.985c-2.21,0-3.999,1.788-3.999,3.999s1.789,3.999,3.999,3.999h55.985    c2.21,0,3.999-1.789,3.999-3.999C287.923,145.75,286.134,143.961,283.924,143.961z" fill="#b1976b" data-original="#000000" style="" class=""></path> </g> </g> <g xmlns="http://www.w3.org/2000/svg"> <g> <path d="M244.103,159.962c-2.124-0.067-4.069,1.621-4.163,3.827l-7.998,191.944c-0.093,2.211,1.621,4.077,3.827,4.171    c0.059,0,0.113,0,0.172,0c2.133,0,3.901-1.687,3.991-3.827l7.998-191.952C248.024,161.919,246.31,160.052,244.103,159.962z" fill="#b1976b" data-original="#000000" style="" class=""></path> </g> </g> <g xmlns="http://www.w3.org/2000/svg"> <g> <path d="M271.927,163.789c-0.094-2.206-1.905-3.889-4.17-3.827c-2.203,0.09-3.918,1.956-3.828,4.163l7.998,191.952    c0.094,2.14,1.859,3.827,3.999,3.827c0.055,0,0.11,0,0.172,0c2.202-0.094,3.921-1.96,3.827-4.171L271.927,163.789z" fill="#b1976b" data-original="#000000" style="" class=""></path> </g> </g> <g xmlns="http://www.w3.org/2000/svg"> <g> <path d="M238.764,353.078c-1.562-1.562-4.093-1.562-5.655,0l-7.998,7.998c-1.562,1.561-1.562,4.092,0,5.654    c0.782,0.781,1.805,1.172,2.828,1.172s2.047-0.391,2.827-1.172l7.998-7.997C240.326,357.171,240.326,354.64,238.764,353.078z" fill="#b1976b" data-original="#000000" style="" class=""></path> </g> </g> <g xmlns="http://www.w3.org/2000/svg"> <g> <path d="M238.765,369.074l-7.998-7.998c-1.562-1.562-4.093-1.562-5.655,0c-1.562,1.561-1.562,4.092,0,5.654l7.998,7.998    c0.781,0.781,1.804,1.172,2.827,1.172s2.047-0.391,2.828-1.172C240.327,373.167,240.327,370.636,238.765,369.074z" fill="#b1976b" data-original="#000000" style="" class=""></path> </g> </g> <g xmlns="http://www.w3.org/2000/svg"> <g> <path d="M286.751,361.076l-7.998-7.998c-1.561-1.562-4.092-1.561-5.654,0c-1.562,1.561-1.562,4.093,0,5.655l7.998,7.997    c0.781,0.781,1.804,1.172,2.827,1.172c1.024,0,2.046-0.391,2.827-1.172C288.313,365.169,288.313,362.638,286.751,361.076z" fill="#b1976b" data-original="#000000" style="" class=""></path> </g> </g> <g xmlns="http://www.w3.org/2000/svg"> <g> <path d="M286.751,361.076c-1.561-1.562-4.092-1.562-5.654,0l-7.998,7.998c-1.562,1.561-1.562,4.092,0,5.654    c0.781,0.781,1.805,1.172,2.827,1.172c1.024,0,2.047-0.391,2.827-1.172l7.998-7.998    C288.313,365.169,288.313,362.638,286.751,361.076z" fill="#b1976b" data-original="#000000" style="" class=""></path> </g> </g> <g xmlns="http://www.w3.org/2000/svg"> <g> <path d="M235.937,367.902c-2.21,0-3.999,1.788-3.999,3.999v15.996c0,2.21,1.789,3.998,3.999,3.998    c2.211,0,3.999-1.788,3.999-3.998v-15.996C239.936,369.69,238.148,367.902,235.937,367.902z" fill="#b1976b" data-original="#000000" style="" class=""></path> </g> </g> <g xmlns="http://www.w3.org/2000/svg"> <g> <path d="M275.926,367.902c-2.21,0-3.999,1.788-3.999,3.999v15.996c0,2.21,1.789,3.998,3.999,3.998    c2.211,0,3.999-1.788,3.999-3.998v-15.996C279.925,369.69,278.137,367.902,275.926,367.902z" fill="#b1976b" data-original="#000000" style="" class=""></path> </g> </g> <g xmlns="http://www.w3.org/2000/svg"> <g> <path d="M283.924,391.895h-55.985c-2.21,0-3.999,1.789-3.999,3.999c0,2.211,1.789,3.999,3.999,3.999h55.985    c2.21,0,3.999-1.788,3.999-3.999C287.923,393.684,286.134,391.895,283.924,391.895z" fill="#b1976b" data-original="#000000" style="" class=""></path> </g> </g> <g xmlns="http://www.w3.org/2000/svg"> <g> <path d="M235.937,399.893c-2.21,0-3.999,1.789-3.999,3.999v15.996c0,2.21,1.789,3.999,3.999,3.999    c2.211,0,3.999-1.789,3.999-3.999v-15.996C239.936,401.682,238.148,399.893,235.937,399.893z" fill="#b1976b" data-original="#000000" style="" class=""></path> </g> </g> <g xmlns="http://www.w3.org/2000/svg"> <g> <path d="M275.926,399.893c-2.21,0-3.999,1.789-3.999,3.999v15.996c0,2.21,1.789,3.999,3.999,3.999    c2.211,0,3.999-1.789,3.999-3.999v-15.996C279.925,401.682,278.137,399.893,275.926,399.893z" fill="#b1976b" data-original="#000000" style="" class=""></path> </g> </g> <g xmlns="http://www.w3.org/2000/svg"> <g> <path d="M291.922,415.889h-71.98c-2.211,0-3.999,1.788-3.999,3.999c0,2.21,1.788,3.999,3.999,3.999h71.98    c2.21,0,3.999-1.789,3.999-3.999C295.921,417.677,294.132,415.889,291.922,415.889z" fill="#b1976b" data-original="#000000" style="" class=""></path> </g> </g> <g xmlns="http://www.w3.org/2000/svg"> <g> <path d="M291.922,415.889c-2.21,0-3.999,1.788-3.999,3.999v23.993c0,2.211,1.789,3.999,3.999,3.999    c2.21,0,3.999-1.788,3.999-3.999v-23.993C295.921,417.677,294.132,415.889,291.922,415.889z" fill="#b1976b" data-original="#000000" style="" class=""></path> </g> </g> <g xmlns="http://www.w3.org/2000/svg"> <g> <path d="M219.942,415.889c-2.211,0-3.999,1.788-3.999,3.999v23.993c0,2.211,1.788,3.999,3.999,3.999    c2.21,0,3.998-1.788,3.999-3.999v-23.993C223.941,417.677,222.152,415.889,219.942,415.889z" fill="#b1976b" data-original="#000000" style="" class=""></path> </g> </g> <g xmlns="http://www.w3.org/2000/svg"> <g> <path d="M211.944,423.887h-79.979c-2.21,0-3.999,1.788-3.999,3.998c0,2.211,1.789,4,3.999,4h79.979c2.21,0,3.999-1.789,3.999-4    C215.943,425.675,214.154,423.887,211.944,423.887z" fill="#b1976b" data-original="#000000" style="" class=""></path> </g> </g> <g xmlns="http://www.w3.org/2000/svg"> <g> <path d="M379.899,423.887H299.92c-2.211,0-3.999,1.788-3.999,3.998c0,2.211,1.788,4,3.999,4h79.979c2.21,0,3.999-1.789,3.999-4    C383.898,425.675,382.109,423.887,379.899,423.887z" fill="#b1976b" data-original="#000000" style="" class=""></path> </g> </g> <g xmlns="http://www.w3.org/2000/svg"> <g> <path d="M131.965,423.888c-2.21,0-3.999,1.788-3.999,3.998v63.983c0,2.21,1.789,3.999,3.999,3.999c2.21,0,3.999-1.79,3.999-3.999    v-63.983C135.964,425.676,134.175,423.888,131.965,423.888z" fill="#b1976b" data-original="#000000" style="" class=""></path> </g> </g> <g xmlns="http://www.w3.org/2000/svg"> <g> <path d="M379.899,487.87H131.965c-2.21,0-3.999,1.789-3.999,3.999c0,2.21,1.789,3.999,3.999,3.999h247.934    c2.21,0,3.999-1.789,3.999-3.999C383.898,489.659,382.109,487.87,379.899,487.87z" fill="#b1976b" data-original="#000000" style="" class=""></path> </g> </g> <g xmlns="http://www.w3.org/2000/svg"> <g> <path d="M379.899,423.888c-2.211,0-3.999,1.788-3.999,3.998v63.983c0,2.21,1.788,3.999,3.999,3.999c2.21,0,3.999-1.79,3.999-3.999    v-63.983C383.898,425.676,382.109,423.888,379.899,423.888z" fill="#b1976b" data-original="#000000" style="" class=""></path> </g> </g> <g xmlns="http://www.w3.org/2000/svg"> <g> <path d="M139.963,496.368c-2.211,0-3.999,1.788-3.999,3.998v7.498c0,2.211,1.788,4,3.999,4c2.21,0,3.999-1.789,3.999-4v-7.498    C143.962,498.156,142.173,496.368,139.963,496.368z" fill="#b1976b" data-original="#000000" style="" class=""></path> </g> </g> <g xmlns="http://www.w3.org/2000/svg"> <g> <path d="M171.954,503.866h-31.991c-2.211,0-3.999,1.788-3.999,3.998c0,2.211,1.788,4,3.999,4h31.991c2.21,0,3.999-1.789,3.999-4    C175.953,505.654,174.164,503.866,171.954,503.866z" fill="#b1976b" data-original="#000000" style="" class=""></path> </g> </g> <g xmlns="http://www.w3.org/2000/svg"> <g> <path d="M171.954,495.868c-2.21,0-3.999,1.788-3.999,3.999v7.997c0,2.211,1.789,4,3.999,4c2.21,0,3.999-1.789,3.999-4v-7.997    C175.953,497.656,174.164,495.868,171.954,495.868z" fill="#b1976b" data-original="#000000" style="" class=""></path> </g> </g> <g xmlns="http://www.w3.org/2000/svg"> <g> <path d="M339.91,496.368c-2.211,0-3.999,1.788-3.999,3.998v7.498c0,2.211,1.788,4,3.999,4c2.21,0,3.998-1.789,3.998-4v-7.498    C343.908,498.156,342.12,496.368,339.91,496.368z" fill="#b1976b" data-original="#000000" style="" class=""></path> </g> </g> <g xmlns="http://www.w3.org/2000/svg"> <g> <path d="M371.901,503.866H339.91c-2.211,0-3.999,1.788-3.999,3.998c0,2.211,1.788,4,3.999,4h31.991c2.21,0,3.999-1.789,3.999-4    C375.9,505.654,374.111,503.866,371.901,503.866z" fill="#b1976b" data-original="#000000" style="" class=""></path> </g> </g> <g xmlns="http://www.w3.org/2000/svg"> <g> <path d="M371.901,495.868c-2.21,0-3.999,1.788-3.999,3.999v7.997c0,2.211,1.789,4,3.999,4c2.21,0,3.999-1.789,3.999-4v-7.997    C375.9,497.656,374.111,495.868,371.901,495.868z" fill="#b1976b" data-original="#000000" style="" class=""></path> </g> </g> <g xmlns="http://www.w3.org/2000/svg"> <g> <path d="M75.98,359.903c-21.58,0-39.821-15.417-43.379-36.646c-0.367-2.186-2.448-3.694-4.604-3.288    c-2.18,0.368-3.648,2.43-3.285,4.601c4.206,25.11,25.767,43.332,51.268,43.332c2.21,0,3.999-1.788,3.999-4    C79.979,361.692,78.19,359.903,75.98,359.903z" fill="#b1976b" data-original="#000000" style="" class=""></path> </g> </g> <g xmlns="http://www.w3.org/2000/svg"> <g> <path d="M507.864,303.918c-2.211,0-4,1.789-4,4c0,37.489-30.491,67.981-67.981,67.981c-37.489,0-67.981-30.492-67.981-67.981    c0-2.211-1.789-4-3.999-4c-2.21,0-3.999,1.789-3.999,4c0,41.895,34.084,75.979,75.979,75.979c41.896,0,75.98-34.084,75.979-75.979    C511.862,305.707,510.074,303.918,507.864,303.918z" fill="#b1976b" data-original="#000000" style="" class=""></path> </g> </g> <g xmlns="http://www.w3.org/2000/svg"> <g> <path d="M507.865,303.918H363.903c-2.21,0-3.999,1.789-3.999,4c0,2.21,1.789,3.998,3.999,3.998h143.962    c2.21,0,3.998-1.788,3.998-3.998C511.863,305.707,510.075,303.918,507.865,303.918z" fill="#b1976b" data-original="#000000" style="" class=""></path> </g> </g> <g xmlns="http://www.w3.org/2000/svg"> <g> <path d="M435.882,359.903c-21.58,0-39.817-15.417-43.379-36.646c-0.367-2.186-2.452-3.694-4.608-3.288    c-2.171,0.368-3.638,2.43-3.279,4.601c4.202,25.11,25.766,43.332,51.267,43.332c2.211,0,3.999-1.788,3.998-4    C439.881,361.692,438.093,359.903,435.882,359.903z" fill="#b1976b" data-original="#000000" style="" class=""></path> </g> </g> <g xmlns="http://www.w3.org/2000/svg"> <g> <path d="M69.294,104.195c-2.092-0.742-4.37,0.378-5.088,2.464l-1.312,3.78c-0.726,2.085,0.379,4.366,2.464,5.088    c0.433,0.153,0.878,0.223,1.312,0.223c1.656,0,3.206-1.034,3.776-2.687l1.312-3.78C72.484,107.198,71.379,104.917,69.294,104.195z    " fill="#b1976b" data-original="#000000" style="" class=""></path> </g> </g> <g xmlns="http://www.w3.org/2000/svg"> <g> <g> <path d="M27.969,223.019c-2.085-0.73-4.365,0.375-5.092,2.46l-2.671,7.67c-0.727,2.085,0.375,4.366,2.46,5.092     c0.438,0.153,0.879,0.223,1.316,0.223c1.656,0,3.203-1.035,3.776-2.684l2.671-7.669     C31.156,226.026,30.054,223.745,27.969,223.019z" fill="#b1976b" data-original="#000000" style="" class=""></path> <path d="M33.301,207.678c-2.07-0.734-4.359,0.379-5.089,2.464l-2.667,7.67c-0.727,2.086,0.375,4.362,2.464,5.089     c0.433,0.153,0.874,0.223,1.312,0.223c1.655,0,3.202-1.035,3.777-2.688l2.667-7.67C36.491,210.681,35.39,208.405,33.301,207.678z     " fill="#b1976b" data-original="#000000" style="" class=""></path> <path d="M38.634,192.34c-2.077-0.719-4.361,0.379-5.088,2.464l-2.667,7.67c-0.726,2.085,0.375,4.361,2.464,5.088     c0.434,0.153,0.875,0.223,1.312,0.223c1.656,0,3.203-1.036,3.776-2.686l2.667-7.67C41.824,195.343,40.723,193.067,38.634,192.34z     " fill="#b1976b" data-original="#000000" style="" class=""></path> <path d="M17.292,253.693c-2.062-0.718-4.362,0.379-5.088,2.465l-2.667,7.67c-0.726,2.085,0.375,4.365,2.464,5.084     c0.434,0.157,0.874,0.227,1.312,0.227c1.656,0,3.202-1.039,3.777-2.687l2.667-7.67C20.483,256.696,19.382,254.42,17.292,253.693z     " fill="#b1976b" data-original="#000000" style="" class=""></path> <path d="M11.959,269.037c-2.07-0.734-4.362,0.375-5.089,2.461l-2.667,7.669c-0.726,2.086,0.379,4.366,2.464,5.085     c0.433,0.157,0.874,0.227,1.312,0.227c1.656,0,3.202-1.039,3.777-2.687l2.667-7.67C15.149,272.036,14.048,269.756,11.959,269.037     z" fill="#b1976b" data-original="#000000" style="" class=""></path> <path d="M22.628,238.355c-2.07-0.723-4.359,0.379-5.089,2.464l-2.667,7.67c-0.726,2.085,0.375,4.361,2.464,5.088     c0.433,0.152,0.874,0.222,1.312,0.222c1.656,0,3.202-1.034,3.777-2.686l2.667-7.67C25.818,241.358,24.717,239.082,22.628,238.355     z" fill="#b1976b" data-original="#000000" style="" class=""></path> <path d="M65.31,115.645c-2.065-0.726-4.358,0.375-5.088,2.465l-2.667,7.669c-0.726,2.085,0.375,4.361,2.464,5.088     c0.434,0.153,0.875,0.223,1.312,0.223c1.657,0,3.203-1.035,3.776-2.686l2.667-7.67C68.5,118.648,67.399,116.372,65.31,115.645z" fill="#b1976b" data-original="#000000" style="" class=""></path> <path d="M59.977,130.985c-2.078-0.723-4.362,0.375-5.089,2.464l-2.667,7.669c-0.726,2.086,0.375,4.362,2.464,5.089     c0.433,0.153,0.874,0.223,1.312,0.223c1.656,0,3.203-1.035,3.777-2.687l2.667-7.669     C63.167,133.988,62.066,131.712,59.977,130.985z" fill="#b1976b" data-original="#000000" style="" class=""></path> <path d="M54.646,146.324c-2.092-0.719-4.37,0.379-5.092,2.46l-2.671,7.67c-0.727,2.086,0.375,4.366,2.46,5.093     c0.438,0.153,0.878,0.223,1.316,0.223c1.656,0,3.202-1.035,3.776-2.684l2.671-7.67C57.833,149.331,56.731,147.051,54.646,146.324     z" fill="#b1976b" data-original="#000000" style="" class=""></path> <path d="M43.969,177c-2.066-0.723-4.358,0.378-5.088,2.464l-2.667,7.67c-0.727,2.085,0.375,4.362,2.464,5.088     c0.433,0.153,0.874,0.223,1.312,0.223c1.656,0,3.202-1.035,3.776-2.687l2.667-7.67C47.159,180.003,46.058,177.726,43.969,177z" fill="#b1976b" data-original="#000000" style="" class=""></path> <path d="M49.304,161.66c-2.077-0.726-4.361,0.375-5.088,2.464l-2.667,7.67c-0.726,2.085,0.375,4.362,2.464,5.088     c0.433,0.153,0.874,0.223,1.312,0.223c1.655,0,3.202-1.034,3.776-2.687l2.667-7.67C52.495,164.663,51.393,162.386,49.304,161.66z     " fill="#b1976b" data-original="#000000" style="" class=""></path> </g> </g> </g> <g xmlns="http://www.w3.org/2000/svg"> <g> <path d="M6.623,284.361c-2.101-0.734-4.37,0.383-5.088,2.468l-1.312,3.78c-0.727,2.086,0.379,4.366,2.464,5.093    c0.433,0.149,0.878,0.219,1.312,0.219c1.656,0,3.206-1.031,3.776-2.687l1.312-3.781C9.814,287.368,8.709,285.088,6.623,284.361z" fill="#b1976b" data-original="#000000" style="" class=""></path> </g> </g> <g xmlns="http://www.w3.org/2000/svg"> <g> <path d="M89.066,110.439l-1.312-3.78c-0.722-2.086-3.006-3.206-5.088-2.464c-2.085,0.722-3.191,3.003-2.464,5.088l1.312,3.78    c0.569,1.652,2.12,2.687,3.776,2.687c0.434,0,0.879-0.07,1.311-0.223C88.687,114.805,89.792,112.524,89.066,110.439z" fill="#b1976b" data-original="#000000" style="" class=""></path> </g> </g> <g xmlns="http://www.w3.org/2000/svg"> <g> <g> <path d="M107.948,176.882c2.089-0.726,3.19-3.003,2.464-5.088l-2.667-7.67c-0.722-2.089-3.015-3.194-5.088-2.464     c-2.089,0.726-3.19,3.003-2.464,5.088l2.667,7.67c0.574,1.652,2.12,2.687,3.776,2.687     C107.074,177.105,107.515,177.035,107.948,176.882z" fill="#b1976b" data-original="#000000" style="" class=""></path> <path d="M113.282,192.222c2.089-0.726,3.191-3.003,2.464-5.088l-2.667-7.67c-0.726-2.089-3.022-3.19-5.088-2.464     c-2.089,0.726-3.191,3.003-2.464,5.088l2.667,7.67c0.574,1.652,2.121,2.687,3.776,2.687     C112.408,192.445,112.849,192.374,113.282,192.222z" fill="#b1976b" data-original="#000000" style="" class=""></path> <path d="M91.941,130.866c2.089-0.726,3.191-3.003,2.464-5.088l-2.667-7.669c-0.727-2.09-3.007-3.195-5.089-2.465     c-2.089,0.727-3.191,3.004-2.464,5.089l2.667,7.67c0.574,1.652,2.121,2.687,3.776,2.687     C91.066,131.09,91.507,131.02,91.941,130.866z" fill="#b1976b" data-original="#000000" style="" class=""></path> <path d="M102.618,161.548c2.085-0.727,3.187-3.008,2.46-5.093l-2.671-7.67c-0.727-2.081-3.003-3.183-5.093-2.46     c-2.085,0.726-3.187,3.007-2.46,5.092l2.671,7.67c0.574,1.648,2.121,2.683,3.776,2.683     C101.739,161.77,102.18,161.7,102.618,161.548z" fill="#b1976b" data-original="#000000" style="" class=""></path> <path d="M97.274,146.207c2.09-0.727,3.191-3.003,2.465-5.089l-2.667-7.669c-0.726-2.089-3.015-3.191-5.088-2.464     c-2.089,0.727-3.19,3.003-2.464,5.089l2.667,7.669c0.573,1.652,2.12,2.687,3.776,2.687C96.4,146.43,96.842,146.36,97.274,146.207     z" fill="#b1976b" data-original="#000000" style="" class=""></path> <path d="M118.617,207.561c2.089-0.726,3.191-3.003,2.464-5.088l-2.667-7.67c-0.726-2.089-3.01-3.186-5.088-2.464     c-2.089,0.727-3.191,3.004-2.464,5.089l2.667,7.67c0.574,1.652,2.12,2.687,3.776,2.687     C117.743,207.785,118.184,207.714,118.617,207.561z" fill="#b1976b" data-original="#000000" style="" class=""></path> <path d="M123.952,222.902c2.089-0.727,3.191-3.003,2.464-5.089l-2.667-7.67c-0.722-2.085-3.018-3.202-5.088-2.464     c-2.089,0.726-3.191,3.003-2.464,5.088l2.667,7.67c0.573,1.652,2.12,2.687,3.776,2.687     C123.077,223.124,123.518,223.054,123.952,222.902z" fill="#b1976b" data-original="#000000" style="" class=""></path> <path d="M139.96,268.912c2.089-0.719,3.191-2.999,2.464-5.084l-2.667-7.67c-0.727-2.09-3.011-3.187-5.089-2.465     c-2.089,0.727-3.191,3.004-2.464,5.089l2.667,7.67c0.574,1.648,2.12,2.687,3.776,2.687     C139.084,269.139,139.526,269.069,139.96,268.912z" fill="#b1976b" data-original="#000000" style="" class=""></path> <path d="M147.758,279.167l-2.667-7.669c-0.726-2.086-3.019-3.195-5.088-2.461c-2.09,0.719-3.191,2.999-2.465,5.085l2.667,7.67     c0.574,1.648,2.12,2.687,3.776,2.687c0.438,0,0.879-0.07,1.313-0.227C147.379,283.533,148.484,281.253,147.758,279.167z" fill="#b1976b" data-original="#000000" style="" class=""></path> <path d="M134.624,253.576c2.089-0.726,3.19-3.003,2.464-5.088l-2.667-7.67c-0.726-2.085-2.995-3.198-5.088-2.464     c-2.089,0.726-3.19,3.003-2.464,5.088l2.667,7.67c0.573,1.653,2.12,2.687,3.776,2.687     C133.749,253.799,134.191,253.729,134.624,253.576z" fill="#b1976b" data-original="#000000" style="" class=""></path> <path d="M129.295,238.242c2.085-0.726,3.187-3.007,2.46-5.092l-2.671-7.67c-0.727-2.085-2.992-3.194-5.093-2.46     c-2.085,0.726-3.187,3.007-2.46,5.092l2.671,7.669c0.574,1.648,2.12,2.683,3.776,2.683     C128.415,238.464,128.857,238.393,129.295,238.242z" fill="#b1976b" data-original="#000000" style="" class=""></path> </g> </g> </g> <g xmlns="http://www.w3.org/2000/svg"> <g> <path d="M151.738,290.609l-1.312-3.78c-0.723-2.085-3-3.202-5.089-2.468c-2.085,0.727-3.191,3.007-2.464,5.092l1.312,3.781    c0.569,1.656,2.12,2.687,3.776,2.687c0.433,0,0.878-0.07,1.313-0.219C151.359,294.975,152.464,292.695,151.738,290.609z" fill="#b1976b" data-original="#000000" style="" class=""></path> </g> </g> <g xmlns="http://www.w3.org/2000/svg"> <g> <path d="M429.199,104.195c-2.093-0.742-4.374,0.378-5.093,2.464l-1.312,3.78c-0.719,2.085,0.383,4.366,2.468,5.088    c0.437,0.153,0.874,0.223,1.312,0.223c1.656,0,3.202-1.034,3.781-2.687l1.312-3.78    C432.386,107.198,431.284,104.917,429.199,104.195z" fill="#b1976b" data-original="#000000" style="" class=""></path> </g> </g> <g xmlns="http://www.w3.org/2000/svg"> <g> <g> <path d="M387.873,223.019c-2.085-0.73-4.365,0.375-5.092,2.46l-2.672,7.67c-0.726,2.085,0.375,4.366,2.461,5.092     c0.437,0.153,0.874,0.223,1.312,0.223c1.655,0,3.202-1.035,3.78-2.684l2.672-7.669     C391.061,226.026,389.959,223.745,387.873,223.019z" fill="#b1976b" data-original="#000000" style="" class=""></path> <path d="M393.208,207.678c-2.077-0.734-4.366,0.379-5.093,2.464l-2.671,7.67c-0.719,2.086,0.375,4.362,2.468,5.089     c0.437,0.153,0.874,0.223,1.312,0.223c1.656,0,3.202-1.035,3.781-2.688l2.663-7.67     C396.395,210.681,395.293,208.405,393.208,207.678z" fill="#b1976b" data-original="#000000" style="" class=""></path> <path d="M371.862,269.037c-2.077-0.734-4.366,0.375-5.085,2.461l-2.671,7.669c-0.726,2.086,0.375,4.366,2.468,5.085     c0.429,0.157,0.874,0.227,1.312,0.227c1.656,0,3.202-1.039,3.773-2.687l2.663-7.67     C375.056,272.036,373.947,269.756,371.862,269.037z" fill="#b1976b" data-original="#000000" style="" class=""></path> <path d="M382.53,238.355c-2.07-0.723-4.366,0.379-5.085,2.464l-2.671,7.67c-0.726,2.085,0.375,4.361,2.469,5.088     c0.429,0.152,0.874,0.222,1.312,0.222c1.655,0,3.202-1.034,3.772-2.686l2.663-7.67     C385.724,241.358,384.616,239.082,382.53,238.355z" fill="#b1976b" data-original="#000000" style="" class=""></path> <path d="M377.196,253.693c-2.063-0.718-4.36,0.379-5.093,2.465l-2.663,7.67c-0.727,2.085,0.375,4.365,2.46,5.084     c0.438,0.157,0.875,0.227,1.312,0.227c1.657,0,3.203-1.039,3.781-2.687l2.671-7.67     C380.382,256.696,379.289,254.42,377.196,253.693z" fill="#b1976b" data-original="#000000" style="" class=""></path> <path d="M409.203,161.66c-2.062-0.726-4.357,0.375-5.084,2.464l-2.663,7.67c-0.734,2.085,0.375,4.362,2.46,5.088     c0.429,0.153,0.874,0.223,1.312,0.223c1.655,0,3.202-1.034,3.773-2.687l2.671-7.67     C412.398,164.663,411.297,162.386,409.203,161.66z" fill="#b1976b" data-original="#000000" style="" class=""></path> <path d="M398.535,192.34c-2.063-0.719-4.358,0.379-5.085,2.464l-2.663,7.67c-0.734,2.085,0.375,4.361,2.46,5.088     c0.429,0.153,0.874,0.223,1.312,0.223c1.655,0,3.202-1.036,3.773-2.686l2.671-7.67     C401.729,195.343,400.628,193.067,398.535,192.34z" fill="#b1976b" data-original="#000000" style="" class=""></path> <path d="M419.881,130.985c-2.07-0.723-4.366,0.375-5.085,2.464l-2.671,7.669c-0.726,2.086,0.375,4.362,2.468,5.089     c0.429,0.153,0.874,0.223,1.312,0.223c1.655,0,3.202-1.035,3.773-2.687l2.663-7.669     C423.075,133.988,421.966,131.712,419.881,130.985z" fill="#b1976b" data-original="#000000" style="" class=""></path> <path d="M425.214,115.645c-2.077-0.726-4.358,0.375-5.092,2.465l-2.664,7.669c-0.727,2.085,0.375,4.361,2.461,5.088     c0.438,0.153,0.875,0.223,1.312,0.223c1.656,0,3.202-1.035,3.78-2.686l2.672-7.67     C428.401,118.648,427.308,116.372,425.214,115.645z" fill="#b1976b" data-original="#000000" style="" class=""></path> <path d="M414.546,146.324c-2.093-0.719-4.359,0.379-5.093,2.46l-2.671,7.67c-0.718,2.086,0.375,4.366,2.468,5.093     c0.437,0.153,0.874,0.223,1.312,0.223c1.656,0,3.202-1.035,3.781-2.684l2.671-7.67     C417.733,149.331,416.639,147.051,414.546,146.324z" fill="#b1976b" data-original="#000000" style="" class=""></path> <path d="M403.876,177c-2.077-0.723-4.366,0.378-5.092,2.464l-2.672,7.67c-0.719,2.085,0.375,4.362,2.469,5.088     c0.438,0.153,0.874,0.223,1.312,0.223c1.656,0,3.202-1.035,3.78-2.687l2.664-7.67C407.063,180.003,405.962,177.726,403.876,177z" fill="#b1976b" data-original="#000000" style="" class=""></path> </g> </g> </g> <g xmlns="http://www.w3.org/2000/svg"> <g> <path d="M366.526,284.361c-2.101-0.734-4.373,0.383-5.092,2.468l-1.312,3.78c-0.719,2.086,0.383,4.366,2.469,5.093    c0.437,0.149,0.874,0.219,1.312,0.219c1.655,0,3.202-1.031,3.78-2.687l1.312-3.781    C369.714,287.368,368.612,285.088,366.526,284.361z" fill="#b1976b" data-original="#000000" style="" class=""></path> </g> </g> <g xmlns="http://www.w3.org/2000/svg"> <g> <path d="M448.975,110.439l-1.312-3.78c-0.727-2.086-3.015-3.206-5.092-2.464c-2.086,0.722-3.188,3.003-2.469,5.088l1.312,3.78    c0.578,1.652,2.124,2.687,3.78,2.687c0.436,0,0.874-0.07,1.312-0.223C448.592,114.805,449.694,112.524,448.975,110.439z" fill="#b1976b" data-original="#000000" style="" class=""></path> </g> </g> <g xmlns="http://www.w3.org/2000/svg"> <g> <g> <path d="M467.851,176.882c2.086-0.726,3.195-3.003,2.461-5.088l-2.664-7.67c-0.726-2.089-3.022-3.194-5.084-2.464     c-2.094,0.726-3.195,3.003-2.468,5.088l2.671,7.67c0.57,1.652,2.116,2.687,3.772,2.687     C466.977,177.105,467.421,177.035,467.851,176.882z" fill="#b1976b" data-original="#000000" style="" class=""></path> <path d="M473.186,192.222c2.093-0.726,3.187-3.003,2.468-5.088l-2.671-7.67c-0.727-2.089-3.015-3.19-5.093-2.464     c-2.085,0.726-3.187,3.003-2.46,5.088l2.663,7.67c0.578,1.652,2.125,2.687,3.781,2.687     C472.311,192.445,472.748,192.374,473.186,192.222z" fill="#b1976b" data-original="#000000" style="" class=""></path> <path d="M451.849,130.866c2.085-0.726,3.187-3.003,2.46-5.088l-2.663-7.669c-0.735-2.09-3.015-3.195-5.093-2.465     c-2.093,0.727-3.187,3.004-2.468,5.089l2.671,7.67c0.578,1.652,2.125,2.687,3.78,2.687     C450.973,131.09,451.411,131.02,451.849,130.866z" fill="#b1976b" data-original="#000000" style="" class=""></path> <path d="M457.176,146.207c2.093-0.727,3.194-3.003,2.468-5.089l-2.671-7.669c-0.719-2.089-3.016-3.191-5.085-2.464     c-2.085,0.727-3.194,3.003-2.46,5.089l2.663,7.669c0.57,1.652,2.116,2.687,3.772,2.687     C456.3,146.43,456.745,146.36,457.176,146.207z" fill="#b1976b" data-original="#000000" style="" class=""></path> <path d="M478.521,207.561c2.085-0.726,3.194-3.003,2.46-5.088l-2.663-7.67c-0.727-2.089-3.023-3.186-5.085-2.464     c-2.093,0.727-3.195,3.004-2.468,5.089l2.671,7.67c0.57,1.652,2.116,2.687,3.772,2.687     C477.646,207.785,478.091,207.714,478.521,207.561z" fill="#b1976b" data-original="#000000" style="" class=""></path> <path d="M462.517,161.548c2.094-0.727,3.187-3.008,2.468-5.093l-2.671-7.67c-0.735-2.081-2.999-3.183-5.092-2.46     c-2.094,0.726-3.188,3.007-2.469,5.092l2.671,7.67c0.578,1.648,2.125,2.683,3.78,2.683     C461.642,161.77,462.079,161.7,462.517,161.548z" fill="#b1976b" data-original="#000000" style="" class=""></path> <path d="M483.855,222.902c2.094-0.727,3.187-3.003,2.469-5.089l-2.672-7.67c-0.727-2.085-3.007-3.202-5.092-2.464     c-2.086,0.726-3.188,3.003-2.461,5.088l2.664,7.67c0.577,1.652,2.124,2.687,3.779,2.687     C482.98,223.124,483.417,223.054,483.855,222.902z" fill="#b1976b" data-original="#000000" style="" class=""></path> <path d="M499.867,268.912c2.085-0.719,3.187-2.999,2.46-5.084l-2.663-7.67c-0.735-2.09-3.024-3.187-5.093-2.465     c-2.093,0.727-3.187,3.004-2.468,5.089l2.671,7.67c0.578,1.648,2.124,2.687,3.78,2.687     C498.992,269.139,499.429,269.069,499.867,268.912z" fill="#b1976b" data-original="#000000" style="" class=""></path> <path d="M507.662,279.167l-2.672-7.669c-0.719-2.086-2.999-3.195-5.084-2.461c-2.086,0.719-3.195,2.999-2.461,5.085l2.664,7.67     c0.57,1.648,2.116,2.687,3.771,2.687c0.438,0,0.883-0.07,1.313-0.227C507.287,283.533,508.388,281.253,507.662,279.167z" fill="#b1976b" data-original="#000000" style="" class=""></path> <path d="M494.524,253.576c2.093-0.726,3.195-3.003,2.468-5.088l-2.671-7.67c-0.718-2.085-2.999-3.198-5.085-2.464     c-2.085,0.726-3.193,3.003-2.46,5.088l2.663,7.67c0.57,1.653,2.117,2.687,3.773,2.687     C493.65,253.799,494.094,253.729,494.524,253.576z" fill="#b1976b" data-original="#000000" style="" class=""></path> <path d="M489.198,238.242c2.085-0.726,3.187-3.007,2.46-5.092l-2.671-7.67c-0.727-2.085-2.991-3.194-5.093-2.46     c-2.085,0.726-3.187,3.007-2.46,5.092l2.671,7.669c0.578,1.648,2.125,2.683,3.78,2.683     C488.323,238.464,488.76,238.393,489.198,238.242z" fill="#b1976b" data-original="#000000" style="" class=""></path> </g> </g> </g> <g xmlns="http://www.w3.org/2000/svg"> <g> <path d="M511.645,290.609l-1.312-3.78c-0.719-2.085-3.007-3.202-5.093-2.468c-2.085,0.727-3.187,3.007-2.468,5.092l1.312,3.781    c0.578,1.656,2.125,2.687,3.781,2.687c0.437,0,0.874-0.07,1.312-0.219C511.262,294.975,512.364,292.695,511.645,290.609z" fill="#b1976b" data-original="#000000" style="" class=""></path> </g> </g> <g xmlns="http://www.w3.org/2000/svg"> <g> <path d="M75.98,47.988c-6.616,0-11.997,5.381-11.997,11.997c0,6.615,5.382,11.996,11.997,11.996    c6.616,0,11.997-5.381,11.997-11.996C87.977,53.369,82.596,47.988,75.98,47.988z M75.98,63.984c-2.206,0-3.999-1.793-3.999-3.999    c0-2.207,1.793-3.999,3.999-3.999c2.206,0,3.999,1.792,3.999,3.999C79.979,62.192,78.187,63.984,75.98,63.984z" fill="#b1976b" data-original="#000000" style="" class=""></path> </g> </g> <g xmlns="http://www.w3.org/2000/svg"> <g> <path d="M435.883,47.988c-6.615,0-11.997,5.381-11.997,11.997c0,6.615,5.382,11.996,11.997,11.996    c6.616,0,11.997-5.381,11.997-11.996C447.88,53.369,442.499,47.988,435.883,47.988z M435.883,63.984    c-2.202,0-3.999-1.793-3.999-3.999c0-2.207,1.797-3.999,3.999-3.999c2.203,0,3.999,1.792,3.999,3.999    C439.882,62.192,438.086,63.984,435.883,63.984z" fill="#b1976b" data-original="#000000" style="" class=""></path> </g> </g> <g xmlns="http://www.w3.org/2000/svg"> </g> <g xmlns="http://www.w3.org/2000/svg"> </g> <g xmlns="http://www.w3.org/2000/svg"> </g> <g xmlns="http://www.w3.org/2000/svg"> </g> <g xmlns="http://www.w3.org/2000/svg"> </g> <g xmlns="http://www.w3.org/2000/svg"> </g> <g xmlns="http://www.w3.org/2000/svg"> </g> <g xmlns="http://www.w3.org/2000/svg"> </g> <g xmlns="http://www.w3.org/2000/svg"> </g> <g xmlns="http://www.w3.org/2000/svg"> </g> <g xmlns="http://www.w3.org/2000/svg"> </g> <g xmlns="http://www.w3.org/2000/svg"> </g> <g xmlns="http://www.w3.org/2000/svg"> </g> <g xmlns="http://www.w3.org/2000/svg"> </g> <g xmlns="http://www.w3.org/2000/svg"> </g> </g></svg>